<mxfile host="app.diagrams.net" agent="Mozilla/5.0 (Windows NT 10.0; Win64; x64) AppleWebKit/537.36 (KHTML, like Gecko) Chrome/133.0.0.0 Safari/537.36" version="26.0.16">
  <diagram name="第 1 页" id="CodfhoXWCU-LSbX0O5cw">
    <mxGraphModel dx="2705" dy="951" grid="1" gridSize="10" guides="1" tooltips="1" connect="1" arrows="1" fold="1" page="1" pageScale="1" pageWidth="827" pageHeight="1169" math="0" shadow="0">
      <root>
        <mxCell id="0" />
        <mxCell id="1" parent="0" />
        <mxCell id="TKlwMqHd4NCk8TxuVn3I-1" value="App Users" style="swimlane;fontStyle=1;align=center;verticalAlign=top;childLayout=stackLayout;horizontal=1;startSize=26;horizontalStack=0;resizeParent=1;resizeParentMax=0;resizeLast=0;collapsible=1;marginBottom=0;whiteSpace=wrap;html=1;" parent="1" vertex="1">
          <mxGeometry x="-115" y="90" width="250" height="190" as="geometry" />
        </mxCell>
        <mxCell id="TKlwMqHd4NCk8TxuVn3I-2" value="&lt;div&gt;- id: int&lt;/div&gt;- username: string&lt;div&gt;- password: string&lt;/div&gt;&lt;div&gt;- email: string&lt;/div&gt;&lt;div&gt;- phone: int&lt;/div&gt;&lt;div&gt;+ job: string&lt;/div&gt;" style="text;strokeColor=none;fillColor=none;align=left;verticalAlign=top;spacingLeft=4;spacingRight=4;overflow=hidden;rotatable=0;points=[[0,0.5],[1,0.5]];portConstraint=eastwest;whiteSpace=wrap;html=1;" parent="TKlwMqHd4NCk8TxuVn3I-1" vertex="1">
          <mxGeometry y="26" width="250" height="94" as="geometry" />
        </mxCell>
        <mxCell id="TKlwMqHd4NCk8TxuVn3I-3" value="" style="line;strokeWidth=1;fillColor=none;align=left;verticalAlign=middle;spacingTop=-1;spacingLeft=3;spacingRight=3;rotatable=0;labelPosition=right;points=[];portConstraint=eastwest;strokeColor=inherit;" parent="TKlwMqHd4NCk8TxuVn3I-1" vertex="1">
          <mxGeometry y="120" width="250" height="8" as="geometry" />
        </mxCell>
        <mxCell id="TKlwMqHd4NCk8TxuVn3I-4" value="&lt;div&gt;# view_artist_records(): artist&lt;/div&gt;# view_performance_records(): performance&lt;div&gt;# view_training_records(): training&lt;/div&gt;" style="text;strokeColor=none;fillColor=none;align=left;verticalAlign=top;spacingLeft=4;spacingRight=4;overflow=hidden;rotatable=0;points=[[0,0.5],[1,0.5]];portConstraint=eastwest;whiteSpace=wrap;html=1;" parent="TKlwMqHd4NCk8TxuVn3I-1" vertex="1">
          <mxGeometry y="128" width="250" height="62" as="geometry" />
        </mxCell>
        <mxCell id="TKlwMqHd4NCk8TxuVn3I-5" value="Training" style="swimlane;fontStyle=1;align=center;verticalAlign=top;childLayout=stackLayout;horizontal=1;startSize=26;horizontalStack=0;resizeParent=1;resizeParentMax=0;resizeLast=0;collapsible=1;marginBottom=0;whiteSpace=wrap;html=1;" parent="1" vertex="1">
          <mxGeometry x="310" y="132" width="170" height="154" as="geometry" />
        </mxCell>
        <mxCell id="TKlwMqHd4NCk8TxuVn3I-6" value="- training_id: int&lt;div&gt;+ title: string&lt;/div&gt;&lt;div&gt;+ training_date: date&lt;/div&gt;&lt;div&gt;+ start_time: time&lt;/div&gt;&lt;div&gt;+ end_time: time&lt;/div&gt;&lt;div&gt;+ venue: string&lt;/div&gt;&lt;div&gt;+ participant_number: int&lt;/div&gt;&lt;div&gt;+ status: string&amp;nbsp;&lt;/div&gt;" style="text;strokeColor=none;fillColor=none;align=left;verticalAlign=top;spacingLeft=4;spacingRight=4;overflow=hidden;rotatable=0;points=[[0,0.5],[1,0.5]];portConstraint=eastwest;whiteSpace=wrap;html=1;" parent="TKlwMqHd4NCk8TxuVn3I-5" vertex="1">
          <mxGeometry y="26" width="170" height="120" as="geometry" />
        </mxCell>
        <mxCell id="TKlwMqHd4NCk8TxuVn3I-7" value="" style="line;strokeWidth=1;fillColor=none;align=left;verticalAlign=middle;spacingTop=-1;spacingLeft=3;spacingRight=3;rotatable=0;labelPosition=right;points=[];portConstraint=eastwest;strokeColor=inherit;" parent="TKlwMqHd4NCk8TxuVn3I-5" vertex="1">
          <mxGeometry y="146" width="170" height="8" as="geometry" />
        </mxCell>
        <mxCell id="TKlwMqHd4NCk8TxuVn3I-9" value="Performance" style="swimlane;fontStyle=1;align=center;verticalAlign=top;childLayout=stackLayout;horizontal=1;startSize=26;horizontalStack=0;resizeParent=1;resizeParentMax=0;resizeLast=0;collapsible=1;marginBottom=0;whiteSpace=wrap;html=1;" parent="1" vertex="1">
          <mxGeometry x="-460" y="130" width="170" height="158" as="geometry" />
        </mxCell>
        <mxCell id="TKlwMqHd4NCk8TxuVn3I-10" value="- performance_id: int&lt;div&gt;+ title: string&lt;/div&gt;&lt;div&gt;+ performance_date: date&lt;/div&gt;&lt;div&gt;+ start_time: time&lt;/div&gt;&lt;div&gt;+ end_time: time&lt;/div&gt;&lt;div&gt;+ venue: string&lt;/div&gt;&lt;div&gt;+ participant_number: int&lt;/div&gt;&lt;div&gt;+ status: string&amp;nbsp;&lt;/div&gt;" style="text;strokeColor=none;fillColor=none;align=left;verticalAlign=top;spacingLeft=4;spacingRight=4;overflow=hidden;rotatable=0;points=[[0,0.5],[1,0.5]];portConstraint=eastwest;whiteSpace=wrap;html=1;" parent="TKlwMqHd4NCk8TxuVn3I-9" vertex="1">
          <mxGeometry y="26" width="170" height="124" as="geometry" />
        </mxCell>
        <mxCell id="TKlwMqHd4NCk8TxuVn3I-11" value="" style="line;strokeWidth=1;fillColor=none;align=left;verticalAlign=middle;spacingTop=-1;spacingLeft=3;spacingRight=3;rotatable=0;labelPosition=right;points=[];portConstraint=eastwest;strokeColor=inherit;" parent="TKlwMqHd4NCk8TxuVn3I-9" vertex="1">
          <mxGeometry y="150" width="170" height="8" as="geometry" />
        </mxCell>
        <mxCell id="TKlwMqHd4NCk8TxuVn3I-13" value="Training Participant" style="swimlane;fontStyle=1;align=center;verticalAlign=top;childLayout=stackLayout;horizontal=1;startSize=26;horizontalStack=0;resizeParent=1;resizeParentMax=0;resizeLast=0;collapsible=1;marginBottom=0;whiteSpace=wrap;html=1;" parent="1" vertex="1">
          <mxGeometry x="315" y="766" width="160" height="150" as="geometry" />
        </mxCell>
        <mxCell id="TKlwMqHd4NCk8TxuVn3I-14" value="- training_id: int&lt;div&gt;- artist_id: int&lt;/div&gt;&lt;div&gt;+ body_status: string&lt;/div&gt;&lt;div&gt;+ attendance: string&lt;/div&gt;" style="text;strokeColor=none;fillColor=none;align=left;verticalAlign=top;spacingLeft=4;spacingRight=4;overflow=hidden;rotatable=0;points=[[0,0.5],[1,0.5]];portConstraint=eastwest;whiteSpace=wrap;html=1;" parent="TKlwMqHd4NCk8TxuVn3I-13" vertex="1">
          <mxGeometry y="26" width="160" height="64" as="geometry" />
        </mxCell>
        <mxCell id="TKlwMqHd4NCk8TxuVn3I-15" value="" style="line;strokeWidth=1;fillColor=none;align=left;verticalAlign=middle;spacingTop=-1;spacingLeft=3;spacingRight=3;rotatable=0;labelPosition=right;points=[];portConstraint=eastwest;strokeColor=inherit;" parent="TKlwMqHd4NCk8TxuVn3I-13" vertex="1">
          <mxGeometry y="90" width="160" height="8" as="geometry" />
        </mxCell>
        <mxCell id="TKlwMqHd4NCk8TxuVn3I-16" value="- update_body_status()&lt;div&gt;- update_attendance()&lt;/div&gt;" style="text;strokeColor=none;fillColor=none;align=left;verticalAlign=top;spacingLeft=4;spacingRight=4;overflow=hidden;rotatable=0;points=[[0,0.5],[1,0.5]];portConstraint=eastwest;whiteSpace=wrap;html=1;" parent="TKlwMqHd4NCk8TxuVn3I-13" vertex="1">
          <mxGeometry y="98" width="160" height="52" as="geometry" />
        </mxCell>
        <mxCell id="TKlwMqHd4NCk8TxuVn3I-17" value="Performance Participant" style="swimlane;fontStyle=1;align=center;verticalAlign=top;childLayout=stackLayout;horizontal=1;startSize=26;horizontalStack=0;resizeParent=1;resizeParentMax=0;resizeLast=0;collapsible=1;marginBottom=0;whiteSpace=wrap;html=1;" parent="1" vertex="1">
          <mxGeometry x="-455" y="779" width="160" height="124" as="geometry" />
        </mxCell>
        <mxCell id="TKlwMqHd4NCk8TxuVn3I-18" value="- performance_id: int&lt;div&gt;- artist_id: int&lt;/div&gt;&lt;div&gt;+ role: string&lt;/div&gt;&lt;div&gt;+ attendance: string&lt;/div&gt;" style="text;strokeColor=none;fillColor=none;align=left;verticalAlign=top;spacingLeft=4;spacingRight=4;overflow=hidden;rotatable=0;points=[[0,0.5],[1,0.5]];portConstraint=eastwest;whiteSpace=wrap;html=1;" parent="TKlwMqHd4NCk8TxuVn3I-17" vertex="1">
          <mxGeometry y="26" width="160" height="64" as="geometry" />
        </mxCell>
        <mxCell id="TKlwMqHd4NCk8TxuVn3I-19" value="" style="line;strokeWidth=1;fillColor=none;align=left;verticalAlign=middle;spacingTop=-1;spacingLeft=3;spacingRight=3;rotatable=0;labelPosition=right;points=[];portConstraint=eastwest;strokeColor=inherit;" parent="TKlwMqHd4NCk8TxuVn3I-17" vertex="1">
          <mxGeometry y="90" width="160" height="8" as="geometry" />
        </mxCell>
        <mxCell id="TKlwMqHd4NCk8TxuVn3I-20" value="- update_attendance()" style="text;strokeColor=none;fillColor=none;align=left;verticalAlign=top;spacingLeft=4;spacingRight=4;overflow=hidden;rotatable=0;points=[[0,0.5],[1,0.5]];portConstraint=eastwest;whiteSpace=wrap;html=1;" parent="TKlwMqHd4NCk8TxuVn3I-17" vertex="1">
          <mxGeometry y="98" width="160" height="26" as="geometry" />
        </mxCell>
        <mxCell id="svQJP1BPElV4BaaX8Ve0-20" style="edgeStyle=orthogonalEdgeStyle;rounded=0;orthogonalLoop=1;jettySize=auto;html=1;endArrow=none;startFill=0;" edge="1" parent="1" source="TKlwMqHd4NCk8TxuVn3I-21" target="svQJP1BPElV4BaaX8Ve0-14">
          <mxGeometry relative="1" as="geometry" />
        </mxCell>
        <mxCell id="svQJP1BPElV4BaaX8Ve0-21" value="1" style="edgeLabel;html=1;align=center;verticalAlign=middle;resizable=0;points=[];" vertex="1" connectable="0" parent="svQJP1BPElV4BaaX8Ve0-20">
          <mxGeometry x="0.8783" relative="1" as="geometry">
            <mxPoint x="9" y="-2" as="offset" />
          </mxGeometry>
        </mxCell>
        <mxCell id="svQJP1BPElV4BaaX8Ve0-22" value="1..*" style="edgeLabel;html=1;align=center;verticalAlign=middle;resizable=0;points=[];" vertex="1" connectable="0" parent="svQJP1BPElV4BaaX8Ve0-20">
          <mxGeometry x="-0.8735" relative="1" as="geometry">
            <mxPoint x="15" as="offset" />
          </mxGeometry>
        </mxCell>
        <mxCell id="svQJP1BPElV4BaaX8Ve0-26" style="edgeStyle=orthogonalEdgeStyle;rounded=0;orthogonalLoop=1;jettySize=auto;html=1;exitX=1;exitY=0.5;exitDx=0;exitDy=0;entryX=0;entryY=0.5;entryDx=0;entryDy=0;endArrow=none;startFill=0;" edge="1" parent="1" source="TKlwMqHd4NCk8TxuVn3I-21" target="svQJP1BPElV4BaaX8Ve0-23">
          <mxGeometry relative="1" as="geometry" />
        </mxCell>
        <mxCell id="svQJP1BPElV4BaaX8Ve0-28" value="1" style="edgeLabel;html=1;align=center;verticalAlign=middle;resizable=0;points=[];" vertex="1" connectable="0" parent="svQJP1BPElV4BaaX8Ve0-26">
          <mxGeometry x="0.8813" y="2" relative="1" as="geometry">
            <mxPoint y="-8" as="offset" />
          </mxGeometry>
        </mxCell>
        <mxCell id="svQJP1BPElV4BaaX8Ve0-31" value="1..*" style="edgeLabel;html=1;align=center;verticalAlign=middle;resizable=0;points=[];" vertex="1" connectable="0" parent="svQJP1BPElV4BaaX8Ve0-26">
          <mxGeometry x="-0.9018" relative="1" as="geometry">
            <mxPoint y="-13" as="offset" />
          </mxGeometry>
        </mxCell>
        <mxCell id="TKlwMqHd4NCk8TxuVn3I-21" value="Director" style="swimlane;fontStyle=1;align=center;verticalAlign=top;childLayout=stackLayout;horizontal=1;startSize=26;horizontalStack=0;resizeParent=1;resizeParentMax=0;resizeLast=0;collapsible=1;marginBottom=0;whiteSpace=wrap;html=1;" parent="1" vertex="1">
          <mxGeometry x="-210" y="398" width="170" height="90" as="geometry" />
        </mxCell>
        <mxCell id="TKlwMqHd4NCk8TxuVn3I-22" value="+ photography tools: string" style="text;strokeColor=none;fillColor=none;align=left;verticalAlign=top;spacingLeft=4;spacingRight=4;overflow=hidden;rotatable=0;points=[[0,0.5],[1,0.5]];portConstraint=eastwest;whiteSpace=wrap;html=1;" parent="TKlwMqHd4NCk8TxuVn3I-21" vertex="1">
          <mxGeometry y="26" width="170" height="26" as="geometry" />
        </mxCell>
        <mxCell id="TKlwMqHd4NCk8TxuVn3I-23" value="" style="line;strokeWidth=1;fillColor=none;align=left;verticalAlign=middle;spacingTop=-1;spacingLeft=3;spacingRight=3;rotatable=0;labelPosition=right;points=[];portConstraint=eastwest;strokeColor=inherit;" parent="TKlwMqHd4NCk8TxuVn3I-21" vertex="1">
          <mxGeometry y="52" width="170" height="8" as="geometry" />
        </mxCell>
        <mxCell id="TKlwMqHd4NCk8TxuVn3I-24" value="- manage_performance()" style="text;strokeColor=none;fillColor=none;align=left;verticalAlign=top;spacingLeft=4;spacingRight=4;overflow=hidden;rotatable=0;points=[[0,0.5],[1,0.5]];portConstraint=eastwest;whiteSpace=wrap;html=1;" parent="TKlwMqHd4NCk8TxuVn3I-21" vertex="1">
          <mxGeometry y="60" width="170" height="30" as="geometry" />
        </mxCell>
        <mxCell id="svQJP1BPElV4BaaX8Ve0-27" style="edgeStyle=orthogonalEdgeStyle;rounded=0;orthogonalLoop=1;jettySize=auto;html=1;endArrow=none;startFill=0;" edge="1" parent="1" source="TKlwMqHd4NCk8TxuVn3I-33" target="svQJP1BPElV4BaaX8Ve0-23">
          <mxGeometry relative="1" as="geometry" />
        </mxCell>
        <mxCell id="svQJP1BPElV4BaaX8Ve0-29" value="1" style="edgeLabel;html=1;align=center;verticalAlign=middle;resizable=0;points=[];" vertex="1" connectable="0" parent="svQJP1BPElV4BaaX8Ve0-27">
          <mxGeometry x="0.3838" y="-1" relative="1" as="geometry">
            <mxPoint x="13" y="19" as="offset" />
          </mxGeometry>
        </mxCell>
        <mxCell id="svQJP1BPElV4BaaX8Ve0-32" value="1..*" style="edgeLabel;html=1;align=center;verticalAlign=middle;resizable=0;points=[];" vertex="1" connectable="0" parent="svQJP1BPElV4BaaX8Ve0-27">
          <mxGeometry x="-0.6971" relative="1" as="geometry">
            <mxPoint x="17" as="offset" />
          </mxGeometry>
        </mxCell>
        <mxCell id="TKlwMqHd4NCk8TxuVn3I-33" value="Coach" style="swimlane;fontStyle=1;align=center;verticalAlign=top;childLayout=stackLayout;horizontal=1;startSize=26;horizontalStack=0;resizeParent=1;resizeParentMax=0;resizeLast=0;collapsible=1;marginBottom=0;whiteSpace=wrap;html=1;" parent="1" vertex="1">
          <mxGeometry x="60" y="398" width="166" height="90" as="geometry" />
        </mxCell>
        <mxCell id="TKlwMqHd4NCk8TxuVn3I-34" value="+ training venue: string" style="text;strokeColor=none;fillColor=none;align=left;verticalAlign=top;spacingLeft=4;spacingRight=4;overflow=hidden;rotatable=0;points=[[0,0.5],[1,0.5]];portConstraint=eastwest;whiteSpace=wrap;html=1;" parent="TKlwMqHd4NCk8TxuVn3I-33" vertex="1">
          <mxGeometry y="26" width="166" height="26" as="geometry" />
        </mxCell>
        <mxCell id="TKlwMqHd4NCk8TxuVn3I-35" value="" style="line;strokeWidth=1;fillColor=none;align=left;verticalAlign=middle;spacingTop=-1;spacingLeft=3;spacingRight=3;rotatable=0;labelPosition=right;points=[];portConstraint=eastwest;strokeColor=inherit;" parent="TKlwMqHd4NCk8TxuVn3I-33" vertex="1">
          <mxGeometry y="52" width="166" height="8" as="geometry" />
        </mxCell>
        <mxCell id="TKlwMqHd4NCk8TxuVn3I-36" value="- training()" style="text;strokeColor=none;fillColor=none;align=left;verticalAlign=top;spacingLeft=4;spacingRight=4;overflow=hidden;rotatable=0;points=[[0,0.5],[1,0.5]];portConstraint=eastwest;whiteSpace=wrap;html=1;" parent="TKlwMqHd4NCk8TxuVn3I-33" vertex="1">
          <mxGeometry y="60" width="166" height="30" as="geometry" />
        </mxCell>
        <mxCell id="TKlwMqHd4NCk8TxuVn3I-37" value="Artist" style="swimlane;fontStyle=1;align=center;verticalAlign=top;childLayout=stackLayout;horizontal=1;startSize=26;horizontalStack=0;resizeParent=1;resizeParentMax=0;resizeLast=0;collapsible=1;marginBottom=0;whiteSpace=wrap;html=1;" parent="1" vertex="1">
          <mxGeometry x="-70" y="767" width="160" height="148" as="geometry" />
        </mxCell>
        <mxCell id="TKlwMqHd4NCk8TxuVn3I-38" value="- artist_id: int&lt;div&gt;+ name: string&lt;/div&gt;&lt;div&gt;+ date_of_birth: date&lt;/div&gt;&lt;div&gt;+ age: string&lt;/div&gt;&lt;div&gt;+ gender: string&lt;/div&gt;&lt;div&gt;- email: string&lt;/div&gt;&lt;div&gt;- phone: int&lt;/div&gt;" style="text;strokeColor=none;fillColor=none;align=left;verticalAlign=top;spacingLeft=4;spacingRight=4;overflow=hidden;rotatable=0;points=[[0,0.5],[1,0.5]];portConstraint=eastwest;whiteSpace=wrap;html=1;" parent="TKlwMqHd4NCk8TxuVn3I-37" vertex="1">
          <mxGeometry y="26" width="160" height="114" as="geometry" />
        </mxCell>
        <mxCell id="TKlwMqHd4NCk8TxuVn3I-39" value="" style="line;strokeWidth=1;fillColor=none;align=left;verticalAlign=middle;spacingTop=-1;spacingLeft=3;spacingRight=3;rotatable=0;labelPosition=right;points=[];portConstraint=eastwest;strokeColor=inherit;" parent="TKlwMqHd4NCk8TxuVn3I-37" vertex="1">
          <mxGeometry y="140" width="160" height="8" as="geometry" />
        </mxCell>
        <mxCell id="TKlwMqHd4NCk8TxuVn3I-42" style="edgeStyle=orthogonalEdgeStyle;rounded=0;orthogonalLoop=1;jettySize=auto;html=1;exitX=0.5;exitY=0;exitDx=0;exitDy=0;endArrow=block;endFill=0;strokeColor=default;" parent="1" source="TKlwMqHd4NCk8TxuVn3I-21" target="TKlwMqHd4NCk8TxuVn3I-1" edge="1">
          <mxGeometry relative="1" as="geometry">
            <mxPoint x="-150" y="397.93" as="sourcePoint" />
            <mxPoint x="-40.25" y="290.004" as="targetPoint" />
          </mxGeometry>
        </mxCell>
        <mxCell id="TKlwMqHd4NCk8TxuVn3I-49" style="edgeStyle=orthogonalEdgeStyle;rounded=0;orthogonalLoop=1;jettySize=auto;html=1;exitX=0.5;exitY=0;exitDx=0;exitDy=0;endArrow=block;endFill=0;" parent="1" source="TKlwMqHd4NCk8TxuVn3I-33" target="TKlwMqHd4NCk8TxuVn3I-1" edge="1">
          <mxGeometry relative="1" as="geometry">
            <mxPoint x="177.25" y="405.93" as="sourcePoint" />
            <mxPoint x="20" y="290" as="targetPoint" />
          </mxGeometry>
        </mxCell>
        <mxCell id="TKlwMqHd4NCk8TxuVn3I-50" value="" style="endArrow=none;html=1;edgeStyle=orthogonalEdgeStyle;rounded=0;" parent="1" source="svQJP1BPElV4BaaX8Ve0-1" target="TKlwMqHd4NCk8TxuVn3I-21" edge="1">
          <mxGeometry relative="1" as="geometry">
            <mxPoint x="-100" y="420" as="sourcePoint" />
            <mxPoint x="60" y="420" as="targetPoint" />
          </mxGeometry>
        </mxCell>
        <mxCell id="TKlwMqHd4NCk8TxuVn3I-51" value="1..*" style="edgeLabel;resizable=0;html=1;align=left;verticalAlign=bottom;" parent="TKlwMqHd4NCk8TxuVn3I-50" connectable="0" vertex="1">
          <mxGeometry x="-1" relative="1" as="geometry" />
        </mxCell>
        <mxCell id="TKlwMqHd4NCk8TxuVn3I-52" value="1..*" style="edgeLabel;resizable=0;html=1;align=right;verticalAlign=bottom;" parent="TKlwMqHd4NCk8TxuVn3I-50" connectable="0" vertex="1">
          <mxGeometry x="1" relative="1" as="geometry">
            <mxPoint x="-2" as="offset" />
          </mxGeometry>
        </mxCell>
        <mxCell id="TKlwMqHd4NCk8TxuVn3I-53" value="" style="endArrow=none;html=1;edgeStyle=orthogonalEdgeStyle;rounded=0;" parent="1" source="svQJP1BPElV4BaaX8Ve0-8" target="TKlwMqHd4NCk8TxuVn3I-33" edge="1">
          <mxGeometry relative="1" as="geometry">
            <mxPoint x="-335" y="498" as="sourcePoint" />
            <mxPoint x="270" y="420" as="targetPoint" />
          </mxGeometry>
        </mxCell>
        <mxCell id="TKlwMqHd4NCk8TxuVn3I-54" value="1..*" style="edgeLabel;resizable=0;html=1;align=left;verticalAlign=bottom;" parent="TKlwMqHd4NCk8TxuVn3I-53" connectable="0" vertex="1">
          <mxGeometry x="-1" relative="1" as="geometry">
            <mxPoint x="-20" as="offset" />
          </mxGeometry>
        </mxCell>
        <mxCell id="TKlwMqHd4NCk8TxuVn3I-55" value="1..*" style="edgeLabel;resizable=0;html=1;align=right;verticalAlign=bottom;" parent="TKlwMqHd4NCk8TxuVn3I-53" connectable="0" vertex="1">
          <mxGeometry x="1" relative="1" as="geometry">
            <mxPoint x="24" as="offset" />
          </mxGeometry>
        </mxCell>
        <mxCell id="TKlwMqHd4NCk8TxuVn3I-56" value="" style="endArrow=diamondThin;endFill=0;endSize=24;html=1;rounded=0;" parent="1" source="svQJP1BPElV4BaaX8Ve0-1" target="TKlwMqHd4NCk8TxuVn3I-9" edge="1">
          <mxGeometry width="160" relative="1" as="geometry">
            <mxPoint x="-260" y="502" as="sourcePoint" />
            <mxPoint x="-375" y="472" as="targetPoint" />
          </mxGeometry>
        </mxCell>
        <mxCell id="TKlwMqHd4NCk8TxuVn3I-57" value="1..*" style="edgeLabel;html=1;align=center;verticalAlign=middle;resizable=0;points=[];" parent="TKlwMqHd4NCk8TxuVn3I-56" vertex="1" connectable="0">
          <mxGeometry x="0.2667" relative="1" as="geometry">
            <mxPoint x="15" as="offset" />
          </mxGeometry>
        </mxCell>
        <mxCell id="TKlwMqHd4NCk8TxuVn3I-58" value="1" style="edgeLabel;html=1;align=center;verticalAlign=middle;resizable=0;points=[];" parent="TKlwMqHd4NCk8TxuVn3I-56" vertex="1" connectable="0">
          <mxGeometry x="-0.6933" y="-2" relative="1" as="geometry">
            <mxPoint x="8" y="5" as="offset" />
          </mxGeometry>
        </mxCell>
        <mxCell id="TKlwMqHd4NCk8TxuVn3I-59" value="" style="endArrow=classic;html=1;edgeStyle=orthogonalEdgeStyle;rounded=0;endFill=1;" parent="1" source="TKlwMqHd4NCk8TxuVn3I-17" target="TKlwMqHd4NCk8TxuVn3I-37" edge="1">
          <mxGeometry relative="1" as="geometry">
            <mxPoint x="-250" y="880" as="sourcePoint" />
            <mxPoint x="-90" y="880" as="targetPoint" />
          </mxGeometry>
        </mxCell>
        <mxCell id="TKlwMqHd4NCk8TxuVn3I-60" value="1..*" style="edgeLabel;resizable=0;html=1;align=left;verticalAlign=bottom;" parent="TKlwMqHd4NCk8TxuVn3I-59" connectable="0" vertex="1">
          <mxGeometry x="-1" relative="1" as="geometry" />
        </mxCell>
        <mxCell id="TKlwMqHd4NCk8TxuVn3I-61" value="1..*" style="edgeLabel;resizable=0;html=1;align=right;verticalAlign=bottom;" parent="TKlwMqHd4NCk8TxuVn3I-59" connectable="0" vertex="1">
          <mxGeometry x="1" relative="1" as="geometry">
            <mxPoint x="-10" as="offset" />
          </mxGeometry>
        </mxCell>
        <mxCell id="TKlwMqHd4NCk8TxuVn3I-62" value="" style="endArrow=diamondThin;endFill=0;endSize=24;html=1;rounded=0;" parent="1" source="svQJP1BPElV4BaaX8Ve0-8" target="TKlwMqHd4NCk8TxuVn3I-5" edge="1">
          <mxGeometry width="160" relative="1" as="geometry">
            <mxPoint x="-335" y="630" as="sourcePoint" />
            <mxPoint x="-335" y="530" as="targetPoint" />
          </mxGeometry>
        </mxCell>
        <mxCell id="TKlwMqHd4NCk8TxuVn3I-63" value="1..*" style="edgeLabel;html=1;align=center;verticalAlign=middle;resizable=0;points=[];" parent="TKlwMqHd4NCk8TxuVn3I-62" vertex="1" connectable="0">
          <mxGeometry x="0.2667" relative="1" as="geometry">
            <mxPoint x="15" as="offset" />
          </mxGeometry>
        </mxCell>
        <mxCell id="TKlwMqHd4NCk8TxuVn3I-64" value="1" style="edgeLabel;html=1;align=center;verticalAlign=middle;resizable=0;points=[];" parent="TKlwMqHd4NCk8TxuVn3I-62" vertex="1" connectable="0">
          <mxGeometry x="-0.6933" y="-2" relative="1" as="geometry">
            <mxPoint x="8" y="2" as="offset" />
          </mxGeometry>
        </mxCell>
        <mxCell id="TKlwMqHd4NCk8TxuVn3I-65" value="" style="endArrow=classic;html=1;edgeStyle=orthogonalEdgeStyle;rounded=0;endFill=1;" parent="1" source="TKlwMqHd4NCk8TxuVn3I-13" target="TKlwMqHd4NCk8TxuVn3I-37" edge="1">
          <mxGeometry relative="1" as="geometry">
            <mxPoint x="-255" y="882" as="sourcePoint" />
            <mxPoint x="-70" y="882" as="targetPoint" />
          </mxGeometry>
        </mxCell>
        <mxCell id="TKlwMqHd4NCk8TxuVn3I-66" value="1..*" style="edgeLabel;resizable=0;html=1;align=left;verticalAlign=bottom;" parent="TKlwMqHd4NCk8TxuVn3I-65" connectable="0" vertex="1">
          <mxGeometry x="-1" relative="1" as="geometry">
            <mxPoint x="-25" as="offset" />
          </mxGeometry>
        </mxCell>
        <mxCell id="TKlwMqHd4NCk8TxuVn3I-67" value="1..*" style="edgeLabel;resizable=0;html=1;align=right;verticalAlign=bottom;" parent="TKlwMqHd4NCk8TxuVn3I-65" connectable="0" vertex="1">
          <mxGeometry x="1" relative="1" as="geometry">
            <mxPoint x="30" y="-2" as="offset" />
          </mxGeometry>
        </mxCell>
        <mxCell id="svQJP1BPElV4BaaX8Ve0-1" value="Performance Service" style="swimlane;fontStyle=1;align=center;verticalAlign=top;childLayout=stackLayout;horizontal=1;startSize=26;horizontalStack=0;resizeParent=1;resizeParentMax=0;resizeLast=0;collapsible=1;marginBottom=0;whiteSpace=wrap;html=1;" vertex="1" parent="1">
          <mxGeometry x="-460" y="394" width="170" height="98" as="geometry" />
        </mxCell>
        <mxCell id="svQJP1BPElV4BaaX8Ve0-3" value="" style="line;strokeWidth=1;fillColor=none;align=left;verticalAlign=middle;spacingTop=-1;spacingLeft=3;spacingRight=3;rotatable=0;labelPosition=right;points=[];portConstraint=eastwest;strokeColor=inherit;" vertex="1" parent="svQJP1BPElV4BaaX8Ve0-1">
          <mxGeometry y="26" width="170" height="8" as="geometry" />
        </mxCell>
        <mxCell id="svQJP1BPElV4BaaX8Ve0-4" value="&lt;div&gt;- create_new_performance()&lt;/div&gt;&lt;div&gt;- update_performance()&lt;/div&gt;&lt;div&gt;- delete_performance()&lt;/div&gt;" style="text;strokeColor=none;fillColor=none;align=left;verticalAlign=top;spacingLeft=4;spacingRight=4;overflow=hidden;rotatable=0;points=[[0,0.5],[1,0.5]];portConstraint=eastwest;whiteSpace=wrap;html=1;" vertex="1" parent="svQJP1BPElV4BaaX8Ve0-1">
          <mxGeometry y="34" width="170" height="64" as="geometry" />
        </mxCell>
        <mxCell id="svQJP1BPElV4BaaX8Ve0-5" value="" style="endArrow=none;html=1;edgeStyle=orthogonalEdgeStyle;rounded=0;" edge="1" parent="1" source="svQJP1BPElV4BaaX8Ve0-1" target="TKlwMqHd4NCk8TxuVn3I-17">
          <mxGeometry relative="1" as="geometry">
            <mxPoint x="-330" y="760" as="sourcePoint" />
            <mxPoint x="-180" y="760" as="targetPoint" />
          </mxGeometry>
        </mxCell>
        <mxCell id="svQJP1BPElV4BaaX8Ve0-6" value="1..*" style="edgeLabel;resizable=0;html=1;align=left;verticalAlign=bottom;" connectable="0" vertex="1" parent="svQJP1BPElV4BaaX8Ve0-5">
          <mxGeometry x="-1" relative="1" as="geometry">
            <mxPoint x="5" y="22" as="offset" />
          </mxGeometry>
        </mxCell>
        <mxCell id="svQJP1BPElV4BaaX8Ve0-7" value="1..*" style="edgeLabel;resizable=0;html=1;align=right;verticalAlign=bottom;" connectable="0" vertex="1" parent="svQJP1BPElV4BaaX8Ve0-5">
          <mxGeometry x="1" relative="1" as="geometry">
            <mxPoint x="25" as="offset" />
          </mxGeometry>
        </mxCell>
        <mxCell id="svQJP1BPElV4BaaX8Ve0-8" value="Training Service" style="swimlane;fontStyle=1;align=center;verticalAlign=top;childLayout=stackLayout;horizontal=1;startSize=26;horizontalStack=0;resizeParent=1;resizeParentMax=0;resizeLast=0;collapsible=1;marginBottom=0;whiteSpace=wrap;html=1;" vertex="1" parent="1">
          <mxGeometry x="310" y="394" width="170" height="98" as="geometry" />
        </mxCell>
        <mxCell id="svQJP1BPElV4BaaX8Ve0-9" value="" style="line;strokeWidth=1;fillColor=none;align=left;verticalAlign=middle;spacingTop=-1;spacingLeft=3;spacingRight=3;rotatable=0;labelPosition=right;points=[];portConstraint=eastwest;strokeColor=inherit;" vertex="1" parent="svQJP1BPElV4BaaX8Ve0-8">
          <mxGeometry y="26" width="170" height="8" as="geometry" />
        </mxCell>
        <mxCell id="svQJP1BPElV4BaaX8Ve0-10" value="&lt;div&gt;- create_new_training()&lt;/div&gt;&lt;div&gt;- update_training()&lt;/div&gt;&lt;div&gt;- delete_training()&lt;/div&gt;" style="text;strokeColor=none;fillColor=none;align=left;verticalAlign=top;spacingLeft=4;spacingRight=4;overflow=hidden;rotatable=0;points=[[0,0.5],[1,0.5]];portConstraint=eastwest;whiteSpace=wrap;html=1;" vertex="1" parent="svQJP1BPElV4BaaX8Ve0-8">
          <mxGeometry y="34" width="170" height="64" as="geometry" />
        </mxCell>
        <mxCell id="svQJP1BPElV4BaaX8Ve0-11" value="" style="endArrow=none;html=1;edgeStyle=orthogonalEdgeStyle;rounded=0;" edge="1" parent="1" source="svQJP1BPElV4BaaX8Ve0-8" target="TKlwMqHd4NCk8TxuVn3I-13">
          <mxGeometry relative="1" as="geometry">
            <mxPoint x="210" y="705" as="sourcePoint" />
            <mxPoint x="210" y="797" as="targetPoint" />
          </mxGeometry>
        </mxCell>
        <mxCell id="svQJP1BPElV4BaaX8Ve0-12" value="1..*" style="edgeLabel;resizable=0;html=1;align=left;verticalAlign=bottom;" connectable="0" vertex="1" parent="svQJP1BPElV4BaaX8Ve0-11">
          <mxGeometry x="-1" relative="1" as="geometry">
            <mxPoint x="5" y="22" as="offset" />
          </mxGeometry>
        </mxCell>
        <mxCell id="svQJP1BPElV4BaaX8Ve0-13" value="1..*" style="edgeLabel;resizable=0;html=1;align=right;verticalAlign=bottom;" connectable="0" vertex="1" parent="svQJP1BPElV4BaaX8Ve0-11">
          <mxGeometry x="1" relative="1" as="geometry">
            <mxPoint x="25" as="offset" />
          </mxGeometry>
        </mxCell>
        <mxCell id="svQJP1BPElV4BaaX8Ve0-14" value="Artist Service" style="swimlane;fontStyle=1;align=center;verticalAlign=top;childLayout=stackLayout;horizontal=1;startSize=26;horizontalStack=0;resizeParent=1;resizeParentMax=0;resizeLast=0;collapsible=1;marginBottom=0;whiteSpace=wrap;html=1;" vertex="1" parent="1">
          <mxGeometry x="-210" y="620" width="170" height="98" as="geometry" />
        </mxCell>
        <mxCell id="svQJP1BPElV4BaaX8Ve0-15" value="" style="line;strokeWidth=1;fillColor=none;align=left;verticalAlign=middle;spacingTop=-1;spacingLeft=3;spacingRight=3;rotatable=0;labelPosition=right;points=[];portConstraint=eastwest;strokeColor=inherit;" vertex="1" parent="svQJP1BPElV4BaaX8Ve0-14">
          <mxGeometry y="26" width="170" height="8" as="geometry" />
        </mxCell>
        <mxCell id="svQJP1BPElV4BaaX8Ve0-16" value="&lt;div&gt;&lt;span style=&quot;background-color: transparent; color: light-dark(rgb(0, 0, 0), rgb(255, 255, 255));&quot;&gt;- create_new_artist()&lt;/span&gt;&lt;/div&gt;&lt;div&gt;- update_artist()&lt;/div&gt;&lt;div&gt;- delete_artist()&lt;/div&gt;" style="text;strokeColor=none;fillColor=none;align=left;verticalAlign=top;spacingLeft=4;spacingRight=4;overflow=hidden;rotatable=0;points=[[0,0.5],[1,0.5]];portConstraint=eastwest;whiteSpace=wrap;html=1;" vertex="1" parent="svQJP1BPElV4BaaX8Ve0-14">
          <mxGeometry y="34" width="170" height="64" as="geometry" />
        </mxCell>
        <mxCell id="svQJP1BPElV4BaaX8Ve0-17" value="" style="endArrow=diamondThin;endFill=0;endSize=24;html=1;rounded=0;exitX=1;exitY=0.5;exitDx=0;exitDy=0;" edge="1" parent="1" source="svQJP1BPElV4BaaX8Ve0-16" target="TKlwMqHd4NCk8TxuVn3I-37">
          <mxGeometry width="160" relative="1" as="geometry">
            <mxPoint x="160" y="726" as="sourcePoint" />
            <mxPoint x="160" y="650" as="targetPoint" />
            <Array as="points">
              <mxPoint x="10" y="686" />
            </Array>
          </mxGeometry>
        </mxCell>
        <mxCell id="svQJP1BPElV4BaaX8Ve0-18" value="1..*" style="edgeLabel;html=1;align=center;verticalAlign=middle;resizable=0;points=[];" vertex="1" connectable="0" parent="svQJP1BPElV4BaaX8Ve0-17">
          <mxGeometry x="0.2667" relative="1" as="geometry">
            <mxPoint x="15" y="11" as="offset" />
          </mxGeometry>
        </mxCell>
        <mxCell id="svQJP1BPElV4BaaX8Ve0-19" value="1" style="edgeLabel;html=1;align=center;verticalAlign=middle;resizable=0;points=[];" vertex="1" connectable="0" parent="svQJP1BPElV4BaaX8Ve0-17">
          <mxGeometry x="-0.6933" y="-2" relative="1" as="geometry">
            <mxPoint x="-10" y="-16" as="offset" />
          </mxGeometry>
        </mxCell>
        <mxCell id="svQJP1BPElV4BaaX8Ve0-23" value="View Service" style="swimlane;fontStyle=1;align=center;verticalAlign=top;childLayout=stackLayout;horizontal=1;startSize=26;horizontalStack=0;resizeParent=1;resizeParentMax=0;resizeLast=0;collapsible=1;marginBottom=0;whiteSpace=wrap;html=1;" vertex="1" parent="1">
          <mxGeometry x="42" y="550" width="202" height="130" as="geometry" />
        </mxCell>
        <mxCell id="svQJP1BPElV4BaaX8Ve0-24" value="" style="line;strokeWidth=1;fillColor=none;align=left;verticalAlign=middle;spacingTop=-1;spacingLeft=3;spacingRight=3;rotatable=0;labelPosition=right;points=[];portConstraint=eastwest;strokeColor=inherit;" vertex="1" parent="svQJP1BPElV4BaaX8Ve0-23">
          <mxGeometry y="26" width="202" height="8" as="geometry" />
        </mxCell>
        <mxCell id="svQJP1BPElV4BaaX8Ve0-25" value="&lt;div&gt;&lt;span style=&quot;background-color: transparent; color: light-dark(rgb(0, 0, 0), rgb(255, 255, 255));&quot;&gt;- View_artist_info ()&lt;/span&gt;&lt;/div&gt;&lt;div&gt;-&amp;nbsp;&lt;span style=&quot;background-color: transparent; color: light-dark(rgb(0, 0, 0), rgb(255, 255, 255));&quot;&gt;View_performance_info ()&lt;/span&gt;&lt;/div&gt;&lt;div&gt;&lt;span style=&quot;background-color: transparent; color: light-dark(rgb(0, 0, 0), rgb(255, 255, 255));&quot;&gt;-&amp;nbsp;&lt;/span&gt;&lt;span style=&quot;background-color: transparent; color: light-dark(rgb(0, 0, 0), rgb(255, 255, 255));&quot;&gt;View_performance_participant ()&lt;/span&gt;&lt;/div&gt;&lt;div&gt;-&amp;nbsp;&lt;span style=&quot;background-color: transparent; color: light-dark(rgb(0, 0, 0), rgb(255, 255, 255));&quot;&gt;View_training_info ()&lt;/span&gt;&lt;/div&gt;&lt;div&gt;&lt;span style=&quot;background-color: transparent; color: light-dark(rgb(0, 0, 0), rgb(255, 255, 255));&quot;&gt;-&amp;nbsp;&lt;/span&gt;&lt;span style=&quot;background-color: transparent; color: light-dark(rgb(0, 0, 0), rgb(255, 255, 255));&quot;&gt;View_training_participant ()&lt;/span&gt;&lt;/div&gt;" style="text;strokeColor=none;fillColor=none;align=left;verticalAlign=top;spacingLeft=4;spacingRight=4;overflow=hidden;rotatable=0;points=[[0,0.5],[1,0.5]];portConstraint=eastwest;whiteSpace=wrap;html=1;" vertex="1" parent="svQJP1BPElV4BaaX8Ve0-23">
          <mxGeometry y="34" width="202" height="96" as="geometry" />
        </mxCell>
      </root>
    </mxGraphModel>
  </diagram>
</mxfile>
